<?xml version="1.0" encoding="utf-8"?>
<!-- Generator: Adobe Illustrator 16.0.0, SVG Export Plug-In . SVG Version: 6.00 Build 0)  -->
<!DOCTYPE svg PUBLIC "-//W3C//DTD SVG 1.1//EN" "http://www.w3.org/Graphics/SVG/1.1/DTD/svg11.dtd">
<svg version="1.1" id="Layer_1" xmlns="http://www.w3.org/2000/svg" xmlns:xlink="http://www.w3.org/1999/xlink" x="0px" y="0px"
	 width="701.545px" height="130.079px" viewBox="-426.787 -79.134 701.545 130.079"
	 enable-background="new -426.787 -79.134 701.545 130.079" xml:space="preserve">
<g id="New_Symbol">
	<g id="New_Symbol_9">
		<g id="New_Symbol_12">
			<polygon fill="#242425" points="3.231,-51.593 -18.609,-31.597 -13.106,-26.876 -13.106,22.569 -29.127,7.902 -29.127,-37.977 
				-44.347,-51.593 -66.189,-31.597 -60.684,-26.876 -60.684,19.029 -60.577,19.029 -60.619,19.069 -33.67,43.735 -13.054,24.863 
				-13.054,24.876 18.454,-3.967 18.454,-37.977 18.454,-37.977 			"/>
			<g>
				<polygon fill="#242425" points="206.826,-30.501 206.821,-30.501 206.826,-30.503 183.79,-51.593 160.796,-30.543 
					137.801,-51.593 114.767,-30.503 127.554,-18.796 127.554,39.346 160.836,39.346 160.836,-30.426 173.544,-18.796 
					173.544,39.346 206.826,39.346 				"/>
			</g>
			<g>
				<polygon fill="#242425" points="-164.083,-56.54 -196.972,-56.54 -196.972,29.322 -196.945,39.346 -164.083,39.346 				"/>
			</g>
			<g>
				<g>
					<g>
						<polygon fill="#242425" points="108.185,-15.075 107.98,-15.075 68.089,-51.593 45.052,-30.503 74.901,-3.178 74.901,23.152 
							74.972,23.152 74.901,23.217 97.317,43.735 120.352,22.649 108.185,11.508 						"/>
					</g>
					<g>
						<polygon fill="#242425" points="61.682,-15.075 28.398,-15.075 28.398,23.152 28.465,23.152 28.398,23.217 50.814,43.735 
							73.849,22.649 61.682,11.508 						"/>
					</g>
				</g>
			</g>
			<polygon fill="#242425" points="-426.787,-55.923 -412.71,-43.036 -412.71,14.847 -426.787,27.732 -401.432,50.945 
				-376.078,27.732 -376.105,27.705 -376.078,27.705 -376.078,-55.923 -401.432,-79.134 			"/>
			<rect x="-366.614" y="-79.134" fill="#242425" width="2.55" height="130.079"/>
			<rect x="-372.616" y="-79.134" fill="#242425" width="2.55" height="130.079"/>
			<polygon fill="#242425" points="-294.759,-41.744 -294.82,-41.8 -294.789,-41.828 -335.541,-79.134 -360.896,-55.923 
				-328.13,-25.928 -360.947,4.112 -360.865,4.188 -360.896,4.217 -309.852,50.945 -284.497,27.732 -327.575,-11.702 			"/>
			<polygon fill="none" points="-253.934,12.8 -253.914,12.781 -253.958,12.781 			"/>
			<path fill="#242425" d="M-232.421,8.8l28.695-26.312l-2.251-1.936l0.002-0.001l-35.132-32.249l-23.036,21.089l8.601,7.96
				l20.622,18.786l-17.526,16.022V5.877l0.002-25.707h-33.285V12.71l-0.078,0.08l32.62,26.556l0.076-0.078h43.029V8.8H-232.421z
				 M-253.914,12.781l-0.02,0.019l-0.024-0.019H-253.914z"/>
			<path fill="#242425" d="M-99.649,8.8l28.695-26.312l-2.251-1.936l0.001-0.001l-35.131-32.249l-23.038,21.089l8.601,7.96
				l20.623,18.786l-17.527,16.022V5.877l0.001-25.707h-33.283V12.71l-0.08,0.08l32.622,26.556l0.074-0.078h43.03V8.8H-99.649z
				 M-121.144,12.781l-0.021,0.019l-0.022-0.019H-121.144z"/>
			<g>
				<g>
					<polygon fill="#242425" points="260.833,-9.128 274.758,-9.128 274.758,-27.247 260.796,-27.247 260.796,-56.26 
						227.516,-56.26 227.516,-27.247 216.097,-27.247 216.097,-9.128 227.516,-9.128 227.537,39.346 260.833,39.346 					"/>
				</g>
			</g>
		</g>
	</g>
</g>
</svg>
